
<svg xmlns="http://www.w3.org/2000/svg" width="32" height="32" viewBox="0 0 32 32" fill="none">
  <rect width="32" height="32" rx="6" fill="#2A0045"/>
  <path d="M8 7C8 7 9.5 8 11 11.5C12.5 15 12 17 12 17C12 17 10.5 14 9 12C7.5 10 8 7 8 7Z" fill="#F8B132"/>
  <path d="M12 8C12 8 13 9 14 12C15 15 14.5 17 14.5 17C14.5 17 13.5 14 12.5 12C11.5 10 12 8 12 8Z" fill="#FED233"/>
  <path d="M16 12C16 12 16.5 14 16 17C15.5 20 14 22 14 22C14 22 15 20 15.5 17C16 14 16 12 16 12Z" fill="#F8B132"/>
  <path d="M15 18C15 18 18 18 21 17C24 16 25 15 25 15C25 15 24 17 21 19C18 21 15 18 15 18Z" fill="#FED233"/>
  <path d="M21 15C21 15 22 16 22 17.5C22 19 20 20 20 20C20 20 21 18.5 21 17.5C21 16.5 21 15 21 15Z" fill="#F8B132"/>
</svg>
