
<svg xmlns="http://www.w3.org/2000/svg" width="32" height="32" viewBox="0 0 32 32" fill="none">
  <rect width="32" height="32" rx="6" fill="#6A1B9A"/>
  <path d="M16 5C10.4772 5 6 9.47715 6 15C6 20.5228 10.4772 25 16 25C21.5228 25 26 20.5228 26 15C26 9.47715 21.5228 5 16 5Z" fill="#F8C53A"/>
  <path d="M16 8C12.134 8 9 11.134 9 15C9 18.866 12.134 22 16 22C19.866 22 23 18.866 23 15C23 11.134 19.866 8 16 8ZM16 20C13.2386 20 11 17.7614 11 15C11 12.2386 13.2386 10 16 10C18.7614 10 21 12.2386 21 15C21 17.7614 18.7614 20 16 20Z" fill="#6A1B9A"/>
  <path d="M16 11C13.7909 11 12 12.7909 12 15C12 17.2091 13.7909 19 16 19C18.2091 19 20 17.2091 20 15C20 12.7909 18.2091 11 16 11ZM16 17C14.8954 17 14 16.1046 14 15C14 13.8954 14.8954 13 16 13C17.1046 13 18 13.8954 18 15C18 16.1046 17.1046 17 16 17Z" fill="#F8C53A"/>
</svg>
